<?xml version="1.0" encoding="UTF-8"?>
<!DOCTYPE svg PUBLIC "-//W3C//DTD SVG 1.1//EN" "http://www.w3.org/Graphics/SVG/1.1/DTD/svg11.dtd">
<!-- Creator: CorelDRAW -->
<svg xmlns="http://www.w3.org/2000/svg" xml:space="preserve" width="8in" height="8in" style="shape-rendering:geometricPrecision; text-rendering:geometricPrecision; image-rendering:optimizeQuality; fill-rule:evenodd; clip-rule:evenodd"
viewBox="0 0 8 8"
 xmlns:xlink="http://www.w3.org/1999/xlink">
 <defs>
  <style type="text/css">
   <![CDATA[
    .fil1 {fill:url(#id0)}
    .fil0 {fill:url(#id1);fill-rule:nonzero}
   ]]>

    .fil0{

    animation: pulse 2s cubic-bezier(0.4, 0, 0.6, 1) infinite;
    }

    @keyframes pulse {
    0%, 100% {
        opacity: 1;
    }
    50% {
        opacity: .7;
    }
    }
  </style>
  <linearGradient id="id0" gradientUnits="userSpaceOnUse" x1="-0" y1="4" x2="8" y2="4">
   <stop offset="0" style="stop-color:#460273"/>
   <stop offset="1" style="stop-color:#B03686"/>
  </linearGradient>
  <linearGradient id="id1" gradientUnits="userSpaceOnUse" xlink:href="#id0" x1="1.87311" y1="4" x2="6.12689" y2="4">
  </linearGradient>
 </defs>
 <g id="Layer_x0020_1">
  <metadata id="CorelCorpID_0Corel-Layer"/>
  <path class="fil0" d="M1.95311 2.25875l1.09348 0c-0.00557874,-0.0132362 -0.0106811,-0.0267126 -0.0152913,-0.0404094 -0.0200433,-0.0595512 -0.0309094,-0.122831 -0.0309094,-0.188106 0,-0.162976 0.0660709,-0.310543 0.172882,-0.417354 0.106811,-0.106811 0.254378,-0.172882 0.417354,-0.172882 0.162976,0 0.310543,0.0660709 0.417358,0.172882 0.106811,0.106811 0.172882,0.254378 0.172882,0.417354 0,0.0652717 -0.0108661,0.128555 -0.0309094,0.188102 -0.00461024,0.0136969 -0.00971654,0.0271732 -0.0152953,0.0404134l1.09348 0c0.0441811,0 0.08,0.0358189 0.08,0.08l0 0.974823c0.0132402,-0.00557874 0.0267165,-0.010685 0.0404134,-0.0152953 0.0595472,-0.0200433 0.122831,-0.0309134 0.188106,-0.0309134 0.162976,0 0.310543,0.0660709 0.417354,0.172882 0.106811,0.106815 0.172882,0.254382 0.172882,0.417358 0,0.162976 -0.0660709,0.310543 -0.172882,0.417354 -0.106811,0.106811 -0.254378,0.172882 -0.417354,0.172882 -0.0652756,0 -0.128559,-0.0108661 -0.188106,-0.0309094 -0.0136969,-0.00461024 -0.0271732,-0.00972047 -0.0404134,-0.0152992l0 1.21215c0,0.0441811 -0.0358189,0.08 -0.08,0.08l-1.11581 0c0.00929134,0.0174961 0.0177205,0.0355079 0.0252283,0.0539764 0.0279252,0.0686811 0.043315,0.143634 0.043315,0.222008 0,0.162976 -0.0660709,0.310543 -0.172882,0.417354 -0.106815,0.106811 -0.254382,0.172882 -0.417358,0.172882 -0.162976,0 -0.310543,-0.0660709 -0.417354,-0.172882 -0.106811,-0.106811 -0.172882,-0.254378 -0.172882,-0.417354 0,-0.0783701 0.0153898,-0.153327 0.043315,-0.222008 0.00750787,-0.0184685 0.015937,-0.0364803 0.0252283,-0.0539764l-1.11582 0c-0.0441811,0 -0.08,-0.0358189 -0.08,-0.08l0 -3.27503c0,-0.0441811 0.0358189,-0.08 0.08,-0.08z"/>
  <path class="fil1" d="M1.28 0l5.44001 0c0.704,0 1.28,0.575996 1.28,1.28l0 5.44001c0,0.704 -0.575996,1.28 -1.28,1.28l-5.44001 0c-0.704,0 -1.28,-0.575996 -1.28,-1.28l0 -5.44001c0,-0.704 0.575996,-1.28 1.28,-1.28zm0 0.479996l5.44001 0c0.44,0 0.8,0.36 0.8,0.8l0 5.44001c0,0.44 -0.36,0.8 -0.8,0.8l-5.44001 0c-0.44,0 -0.8,-0.36 -0.8,-0.8l0 -5.44001c0,-0.44 0.36,-0.8 0.8,-0.8z"/>
 </g>
</svg>
