<?xml version="1.0" encoding="UTF-8"?>
<!DOCTYPE svg PUBLIC "-//W3C//DTD SVG 1.1//EN" "http://www.w3.org/Graphics/SVG/1.1/DTD/svg11.dtd">
<!-- Creator: CorelDRAW -->
<svg xmlns="http://www.w3.org/2000/svg" xml:space="preserve" width="8in" height="8in" style="shape-rendering:geometricPrecision; text-rendering:geometricPrecision; image-rendering:optimizeQuality; fill-rule:evenodd; clip-rule:evenodd"
viewBox="0 0 8 8"
 xmlns:xlink="http://www.w3.org/1999/xlink">
 <defs>
  <style type="text/css">
   <![CDATA[
    .fil3 {fill:url(#id0)}
    .fil2 {fill:url(#id1)}
    .fil0 {fill:url(#id2)}
    .fil1 {fill:url(#id3);fill-rule:nonzero}
   ]]>

    .fil2 {
        animation: wifi infinite 1s alternate;
    }

    @keyframes wifi {
        from {
            opacity: 100%;
            transform: scaleY(.95);
        }
        to {
            opacity: 15%;
            width: 200%;
            transform: scaleY(.9);
        }
    }

  </style>
  <linearGradient id="id0" gradientUnits="userSpaceOnUse" x1="-0" y1="4" x2="8" y2="4">
   <stop offset="0" style="stop-color:#460273"/>
   <stop offset="1" style="stop-color:#B03686"/>
  </linearGradient>
  <linearGradient id="id1" gradientUnits="userSpaceOnUse" xlink:href="#id0" x1="2.49913" y1="2.77089" x2="5.50087" y2="2.77089">
  </linearGradient>
  <linearGradient id="id2" gradientUnits="userSpaceOnUse" xlink:href="#id0" x1="3.84001" y1="4.39446" x2="4.16" y2="4.39446">
  </linearGradient>
  <linearGradient id="id3" gradientUnits="userSpaceOnUse" xlink:href="#id0" x1="1.44" y1="5.57673" x2="6.56" y2="5.57673">
  </linearGradient>
 </defs>
 <g id="Layer_x0020_1">
  <metadata id="CorelCorpID_0Corel-Layer"/>
  <path class="fil0" d="M3.84001 4.77174l0 -0.754567c0,-0.0883346 0.0716614,-0.159996 0.159996,-0.159996 0.0883346,0 0.159996,0.0716614 0.159996,0.159996l0 0.754567c0,0.0883346 -0.0716614,0.159996 -0.159996,0.159996 -0.0883346,0 -0.159996,-0.0716614 -0.159996,-0.159996z"/>
  <path class="fil1" d="M1.52 4.80673l4.96 0c0.0441811,0 0.08,0.0358189 0.08,0.08l0 1.38c0,0.0441811 -0.0358189,0.08 -0.08,0.08l-4.96 0c-0.0441811,0 -0.08,-0.0358189 -0.08,-0.08l0 -1.38c0,-0.0441811 0.0358189,-0.08 0.08,-0.08zm3.53621 0.690004c-0.0441811,0 -0.08,0.0358189 -0.08,0.08 0,0.0441811 0.0358189,0.08 0.08,0.08l0.72 0c0.0441811,0 0.08,-0.0358189 0.08,-0.08 0,-0.0441811 -0.0358189,-0.08 -0.08,-0.08l-0.72 0zm-1.41621 0c-0.0441811,0 -0.08,0.0358189 -0.08,0.08 0,0.0441811 0.0358189,0.08 0.08,0.08l0.72 0c0.0441811,0 0.08,-0.0358189 0.08,-0.08 0,-0.0441811 -0.0358189,-0.08 -0.08,-0.08l-0.72 0zm-1.41621 0c-0.0441811,0 -0.08,0.0358189 -0.08,0.08 0,0.0441811 0.0358189,0.08 0.08,0.08l0.72 0c0.0441811,0 0.08,-0.0358189 0.08,-0.08 0,-0.0441811 -0.0358189,-0.08 -0.08,-0.08l-0.72 0z"/>
  <path class="fil2" d="M2.55034 2.40059c0.164701,-0.231122 0.383075,-0.420272 0.635421,-0.550315 0.252291,-0.130012 0.530445,-0.197 0.814236,-0.197 0.283791,0 0.561945,0.0669882 0.814236,0.197 0.252346,0.130043 0.47072,0.319193 0.635421,0.550315 0.0512087,0.0718583 0.0343701,0.171709 -0.0375157,0.222858 -0.0718583,0.0511299 -0.171602,0.0343071 -0.222776,-0.0375039 -0.135154,-0.189661 -0.314476,-0.344866 -0.521547,-0.451575 -0.206957,-0.106654 -0.435071,-0.161102 -0.667819,-0.161102 -0.232748,0 -0.460862,0.0544488 -0.667819,0.161102 -0.207071,0.106709 -0.386394,0.261913 -0.521547,0.451575 -0.0511732,0.071811 -0.150917,0.0886339 -0.222776,0.0375039 -0.0718858,-0.0511496 -0.0887244,-0.151 -0.0375157,-0.222858zm0.811268 1.21393c0.0760079,-0.106661 0.176764,-0.193961 0.29322,-0.25398 0.116453,-0.0600118 0.244874,-0.0910827 0.375882,-0.0910827 0.131008,0 0.259425,0.0310709 0.375878,0.0910827 0.116461,0.0600197 0.217213,0.147315 0.29322,0.25398 0.0512087,0.0718583 0.0343701,0.171709 -0.0375157,0.222858 -0.0718583,0.0511299 -0.171602,0.0343071 -0.222776,-0.0375039 -0.0464646,-0.0652008 -0.108161,-0.118555 -0.179346,-0.15524 -0.0711181,-0.0366535 -0.149496,-0.055185 -0.229461,-0.055185 -0.0799646,0 -0.158346,0.0185315 -0.229465,0.055185 -0.071185,0.036685 -0.132878,0.0900354 -0.179339,0.15524 -0.0511732,0.071811 -0.150921,0.0886339 -0.22278,0.0375039 -0.0718858,-0.0511496 -0.0887244,-0.151 -0.0375197,-0.222858zm-0.434043 -0.569047c0.121681,-0.170752 0.283004,-0.310504 0.469437,-0.406583 0.186402,-0.0960591 0.391925,-0.145622 0.601606,-0.145622 0.209681,0 0.415213,0.049563 0.60161,0.145622 0.186433,0.0960787 0.347752,0.235827 0.469433,0.406579 0.0512087,0.0718583 0.0343701,0.171709 -0.0375157,0.222858 -0.0718583,0.0511299 -0.171602,0.0343071 -0.222776,-0.0375039 -0.0921339,-0.129291 -0.214402,-0.235094 -0.355559,-0.307839 -0.141067,-0.0727008 -0.296555,-0.109724 -0.455193,-0.109724 -0.158638,0 -0.314122,0.0370236 -0.455189,0.109724 -0.141161,0.0727441 -0.263425,0.178547 -0.355563,0.307843 -0.0511732,0.071811 -0.150917,0.0886339 -0.222776,0.0375039 -0.0718858,-0.0511496 -0.0887244,-0.151 -0.0375157,-0.222858z"/>
  <path class="fil3" d="M1.28 0l5.44001 0c0.704,0 1.28,0.575996 1.28,1.28l0 5.44001c0,0.704 -0.575996,1.28 -1.28,1.28l-5.44001 0c-0.704,0 -1.28,-0.575996 -1.28,-1.28l0 -5.44001c0,-0.704 0.575996,-1.28 1.28,-1.28zm0 0.479996l5.44001 0c0.44,0 0.8,0.36 0.8,0.8l0 5.44001c0,0.44 -0.36,0.8 -0.8,0.8l-5.44001 0c-0.44,0 -0.8,-0.36 -0.8,-0.8l0 -5.44001c0,-0.44 0.36,-0.8 0.8,-0.8z"/>
 </g>
</svg>
