<svg id="Camada_1" data-name="Camada 1" xmlns="http://www.w3.org/2000/svg" viewBox="0 0 443.09 442.09">
  <g>
    <path d="M645.62,108.52c0-4.21-1.32-5-5.22-5q-43.08.24-86.17,0c-4,0-5.21,1-5.14,5.08.24,15.59.1,31.18.1,46.77l-1.42.92a20.12,20.12,0,0,0-1.86-2.81Q482.64,85.24,390,94.48c-75.74,7.62-130.66,46.31-164.74,113.68-24,47.39-26.69,98.25-18.77,150,13.08,85.53,82.37,169.29,185.58,176.64,59.43,4.22,110.63-12.33,152.12-56l5-5.22c0,16.32.14,31.3-.09,46.28-.07,4.07.64,5.62,5.24,5.58,28.72-.24,57.44-.2,86.16,0,4,0,5.12-1,5.11-5.11Q645.46,314.4,645.62,108.52ZM550.72,271c-4.13,5.24-9.66,8.81-15.23,12.25-8.84,5.46-17.9,10.57-26.59,16.25s-8.43,5.85-5.4,15.36c7.87,24.76,19.14,48.22,27.52,72.79,2.49,7.29,4.81,14.63,5.88,22.27a37.78,37.78,0,0,1,.41,8.62c-.65,7.23-4.69,10.62-12.95,10.41-7.35-.77-14.95-4-22.38-7.65-32.19-16-64.44-31.89-96.47-48.2-5.3-2.7-9.72-2.48-14.68-.21-12.06,5.54-22.15,13.89-32,22.56-11.42,10.06-22.51,20.5-33.92,30.57-3,2.68-7,7.82-10.35,5.49-3.91-2.76-.09-8.18,1.38-12.08,7.71-20.35,17.92-39.55,27.61-59,2-4,3.78-8,5.9-11.87,1.65-3,.84-4.59-1.94-6.46-12.86-8.64-27.13-14.42-41.17-20.7-2.63-1.17-5.29-2.32-7.8-3.72-10.87-6-13.91-14.65-9.8-26.38,1.12-3.2,3.65-3.74,6.12-4.56,15.25-5.05,31.13-7,46.93-9.28,14.48-2.11,29-4.1,43.47-6.06,5-.69,8.36-3.44,10.71-7.81Q415.25,227.76,434.6,192c2-3.72,3.77-7.6,6.66-10.76,4.19-4.6,8.46-4.69,12.94-.35a20.74,20.74,0,0,1,4.78,7.8q11.31,29.64,20.78,59.92c1.29,4.12,2.66,5.74,7.51,5,14.08-2.09,27.91-5.78,42.18-6.69a55.59,55.59,0,0,1,12.1.4C554.12,249.24,558.66,260.92,550.72,271Z" transform="translate(-202.53 -93.36)" style="fill: #333"/>
    <path d="M475.9,321.42a327.92,327.92,0,0,0-39.3,25.27c-2.25,1.71-2.66,2.86.26,4.41,19.85,10.53,39.64,21.17,60.48,32.34-6.15-20.94-11.92-40.46-17.6-60C479.08,321.17,478.47,320,475.9,321.42Z" transform="translate(-202.53 -93.36)" style="fill: #333"/>
    <path d="M456.44,291.17c-15.55,1.5-30.73,5.31-46.16,7.5-14.62,2.08-21.22,11.79-24.63,24.85-.29,1.08-.91,1.89.39,3a19.63,19.63,0,0,0,22.64,1.15Q435.45,310,462.2,292.33C460.61,290.3,458.25,292.12,456.44,291.17Z" transform="translate(-202.53 -93.36)" style="fill: #333"/>
    <path d="M457.92,255.43c-3.91-12.86-7.84-25.73-12.14-39.84-11.31,15.87-20.5,31.59-27.58,49.73,13.64-2.29,26.12-4.41,38.62-6.48C459.54,258.39,458.33,256.79,457.92,255.43Z" transform="translate(-202.53 -93.36)" style="fill: #333"/>
    <path d="M462.2,292.33c.89-.49,3.32-1,.74-2a7.38,7.38,0,0,0-6.5.84C458.47,291,460.79,289.44,462.2,292.33Z" transform="translate(-202.53 -93.36)" style="fill: #9d7e93"/>
  </g>
</svg>
