

<svg id="vivo" data-name="Camada 1" xmlns="http://www.w3.org/2000/svg" viewBox="0 0 394.38 541.82">

  <path class="vivo" d="M218.25,291.07l2.29-18.37c1.06-4.19,1.8-7.73,2.52-11.53,5.57-29.19,28.53-43.94,56.36-34.33,19.33,6.68,39.85,10,60,14.16,11.71,2.4,26.74,12,34.14-3.52,7.28-15.32-10.27-19.07-18.92-25.89-31.84-25.12-45.14-57.67-38.77-97.44C322.48,72.87,348.2,47.69,387,34.73c2.41-.8,5.27-.41,7.67-1.21a61.56,61.56,0,0,1,19.61-3.11h0c10.21,0,20.24,2,30.1,4.63.23.06.46.13.68.21,38.35,14.11,63.83,39.83,69.13,81.38s-9.25,75.18-44.83,99c-7.17,4.8-18.24,9.25-13.29,21.13,5.26,12.61,16.7,8.25,26,6.33,15.29-3.16,30.29-7.62,45.5-11.18,62.17-14.58,62.57-14.62,84.36,41.63l.59,17.65c-6.19,18.78-19.2,28.38-38.47,32.07-20.91,4-41.4,10.15-62.1,15.25-36.05,8.87-41.42,25-17.81,54.21,26,32.11,52.34,63.94,78,96.31,17.63,22.23,15.44,41.28-6.49,59.42-6.48,5.36-13.46,10.12-20.45,14.87A32.84,32.84,0,0,1,503.11,559c-7.11-7.38-14.21-14.78-20.85-22.56-15.68-18.42-30.48-37.58-46-56.15-15.95-19.1-25.06-19.13-40.71-.15Q368.41,513,341.85,546.44c-9.82,12.36-20.31,23.45-38.19,25.79l-8.11-2c-6.44-4.32-13.18-8.27-19.29-13-35.34-27.44-37.08-42.06-9-77.28,24.28-30.49,49.13-60.53,73.15-91.21,16-20.39,8.57-42.35-16.52-48.78-21.26-5.45-42.63-10.67-64.2-14.7-17.58-3.28-30.82-11.54-39.72-26.42A12.34,12.34,0,0,1,218.25,291.07Z" transform="translate(-218.16 -30.41)" style="fill: #333"/>

</svg>
